<svg xmlns="http://www.w3.org/2000/svg" width="10.049" height="12.549" viewBox="0 0 10.049 12.549">
  <g id="copy" transform="translate(-48.65)">
    <g id="Grupo_113" data-name="Grupo 113" transform="translate(48.65)">
      <path id="Caminho_204" data-name="Caminho 204" d="M55.476,85.4H49.642a.993.993,0,0,0-.992.992v8.37a.993.993,0,0,0,.992.992h5.834a.993.993,0,0,0,.992-.992v-8.37A1,1,0,0,0,55.476,85.4Zm.3,9.36a.3.3,0,0,1-.3.3H49.639a.3.3,0,0,1-.3-.3V86.392a.3.3,0,0,1,.3-.3h5.834a.3.3,0,0,1,.3.3Z" transform="translate(-48.65 -83.205)" fill="#fff"/>
      <path id="Caminho_205" data-name="Caminho 205" d="M142.276,0h-5.834a.993.993,0,0,0-.992.992.347.347,0,0,0,.694,0,.3.3,0,0,1,.3-.3h5.834a.3.3,0,0,1,.3.3v8.37a.3.3,0,0,1-.3.3.347.347,0,0,0,0,.694.993.993,0,0,0,.992-.992V.992A.993.993,0,0,0,142.276,0Z" transform="translate(-133.219)" fill="#fff"/>
    </g>
  </g>
</svg>
