<svg id="eye-view" xmlns="http://www.w3.org/2000/svg" width="13.706" height="8.628" viewBox="0 0 13.706 8.628">
  <g id="Grupo_86" data-name="Grupo 86" transform="translate(0 0)">
    <path id="Caminho_160" data-name="Caminho 160" d="M1.593,95.986a7.34,7.34,0,0,0,5.259,2.123,7.373,7.373,0,0,0,5.259-2.123,7.672,7.672,0,0,0,1.552-2.139.462.462,0,0,0,0-.386,6.558,6.558,0,0,0-1.512-2.01A7.662,7.662,0,0,0,6.8,89.481a7.493,7.493,0,0,0-5.3,1.978A6.215,6.215,0,0,0,.034,93.477a.455.455,0,0,0,.008.37A7.478,7.478,0,0,0,1.593,95.986ZM6.78,90.478a2.348,2.348,0,1,1-2.348,2.348A2.351,2.351,0,0,1,6.78,90.478Zm-2.726.466a3.285,3.285,0,0,0-.587,1.882,3.313,3.313,0,1,0,6.022-1.9,6.112,6.112,0,0,1,3.176,2.734,7.282,7.282,0,0,1-1.27,1.672A6.3,6.3,0,0,1,6.844,97.16a6.339,6.339,0,0,1-4.551-1.833,7.309,7.309,0,0,1-1.278-1.681A5.892,5.892,0,0,1,4.054,90.944Z" transform="translate(0.002 -89.481)" fill="#fff"/>
  </g>
</svg>
