<svg id="menu-grid" xmlns="http://www.w3.org/2000/svg" width="33.219" height="32.758" viewBox="0 0 33.219 32.758">
  <g id="Grupo_64" data-name="Grupo 64" transform="translate(0 0)">
    <path id="Caminho_119" data-name="Caminho 119" d="M13.841,4.217a1.388,1.388,0,0,0-1.384-1.384H1.384A1.388,1.388,0,0,0,0,4.217V15.29a1.388,1.388,0,0,0,1.384,1.384H12.457a1.388,1.388,0,0,0,1.384-1.384ZM2.768,5.6h8.3v8.3h-8.3Z" transform="translate(0 -2.833)" fill="#fff"/>
    <path id="Caminho_120" data-name="Caminho 120" d="M251.841,4.217a1.388,1.388,0,0,0-1.384-1.384H239.384A1.388,1.388,0,0,0,238,4.217V15.29a1.388,1.388,0,0,0,1.384,1.384h11.073a1.388,1.388,0,0,0,1.384-1.384ZM240.768,5.6h8.3v8.3h-8.3Z" transform="translate(-218.622 -2.833)" fill="#fff"/>
    <path id="Caminho_121" data-name="Caminho 121" d="M13.841,236.551a1.388,1.388,0,0,0-1.384-1.384H1.384A1.388,1.388,0,0,0,0,236.551v11.073a1.388,1.388,0,0,0,1.384,1.384H12.457a1.388,1.388,0,0,0,1.384-1.384ZM2.768,237.935h8.3v8.3h-8.3Z" transform="translate(0 -216.251)" fill="#fff"/>
    <path id="Caminho_122" data-name="Caminho 122" d="M251.841,236.551a1.388,1.388,0,0,0-1.384-1.384H239.384A1.388,1.388,0,0,0,238,236.551v11.073a1.388,1.388,0,0,0,1.384,1.384h11.073a1.388,1.388,0,0,0,1.384-1.384Zm-11.073,1.384h8.3v8.3h-8.3Z" transform="translate(-218.622 -216.251)" fill="#fff"/>
  </g>
</svg>
