<svg xmlns="http://www.w3.org/2000/svg" width="55.634" height="55.407" viewBox="0 0 55.634 55.407">
  <g id="settings" transform="translate(0 -0.114)">
    <g id="Grupo_123" data-name="Grupo 123">
      <g id="Grupo_122" data-name="Grupo 122">
        <path id="Caminho_452" data-name="Caminho 452" d="M36.583,37.243a16.652,16.652,0,0,0-.106-4.026l3.049-1.359a20.083,20.083,0,0,0-3.681-8.267l-3.051,1.358a16.707,16.707,0,0,0-2.921-2.771l1.2-3.116a20.173,20.173,0,0,0-8.448-3.246l-1.2,3.119a16.652,16.652,0,0,0-4.026.106l-1.351-3.034a20.158,20.158,0,0,0-8.259,3.7L9.13,22.723a16.679,16.679,0,0,0-2.773,2.921L3.249,24.452a19.814,19.814,0,0,0-2.113,4.037A20.4,20.4,0,0,0,0,32.9l3.116,1.2a16.652,16.652,0,0,0,.106,4.026L.173,39.476a20.067,20.067,0,0,0,3.682,8.267L6.9,46.385a16.647,16.647,0,0,0,2.922,2.772l-1.2,3.118a20.173,20.173,0,0,0,8.448,3.246l1.2-3.119A16.7,16.7,0,0,0,22.3,52.3l1.351,3.033a20.156,20.156,0,0,0,8.26-3.7l-1.343-3.014a16.681,16.681,0,0,0,2.773-2.921l3.106,1.192a19.832,19.832,0,0,0,2.113-4.036A20.178,20.178,0,0,0,39.7,38.438ZM28.3,38.91a9.051,9.051,0,1,1-5.209-11.692A9.051,9.051,0,0,1,28.3,38.91Z" fill="#fff"/>
      </g>
    </g>
    <g id="Grupo_125" data-name="Grupo 125">
      <g id="Grupo_124" data-name="Grupo 124">
        <path id="Caminho_453" data-name="Caminho 453" d="M53.465,12.4a9.733,9.733,0,0,0-.168-1.769l2.337-1.35a12.266,12.266,0,0,0-3.227-5.6L50.064,5.028A9.629,9.629,0,0,0,47,3.262V.559a11.959,11.959,0,0,0-6.464,0v2.7a9.659,9.659,0,0,0-3.063,1.766L35.13,3.676a12.293,12.293,0,0,0-3.227,5.6l2.338,1.35a9.343,9.343,0,0,0,0,3.538L31.9,15.515a12.288,12.288,0,0,0,3.227,5.6l2.343-1.353a9.64,9.64,0,0,0,3.063,1.766v2.7a11.959,11.959,0,0,0,6.464,0v-2.7a9.648,9.648,0,0,0,3.063-1.766l2.343,1.353a12.266,12.266,0,0,0,3.227-5.6L53.3,14.165A9.664,9.664,0,0,0,53.465,12.4ZM43.77,16.921A4.526,4.526,0,1,1,48.294,12.4,4.526,4.526,0,0,1,43.77,16.921Z" fill="#fff"/>
      </g>
    </g>
  </g>
</svg>
