<svg xmlns="http://www.w3.org/2000/svg" viewBox="0 0 62.077 45.333">
  <g id="AWLogo" transform="translate(-0.63 -0.486)">
    <path id="Caminho_198" data-name="Caminho 198" d="M34,468.006h5.847l2.907,14.856s11.6-22.524,14.153-26.582c1.789-3.419,3.764-5.044,8.073-5.33,2.585-.171,5.533,1.077,8.444,5.33.927,1.6,14.025,26.581,14.025,26.581l3-14.792h5.623l-4.185,21.821s-.8,6.1-4.888,6.2-7.8,0-7.8,0-2.332.735-3.642-3.674c-1.054-2.939-3.45-10.735-3.45-10.735q-.584-1.89-1.274-3.87c-.632-1.808-1.921-4.756-1.953-5.172a1,1,0,0,1,.038-.336,1.961,1.961,0,0,1,.25-.591c.137-.24.245-.5.384-.735a14.767,14.767,0,0,0,1.15-2.492,8.179,8.179,0,0,0,.416-3.8,5.376,5.376,0,0,0-.543-1.789,6.025,6.025,0,0,0-1.374-1.661,6.992,6.992,0,0,0-7.093-.8,5.931,5.931,0,0,0-3,2.971,6.135,6.135,0,0,0-.256,3.419,10.576,10.576,0,0,0,2.365,5.239,1.976,1.976,0,0,1-.288,1.661,50.145,50.145,0,0,0-2.78,7.6c-.768,2.365-3.484,10.959-3.484,10.959s-.256,3.578-3.674,3.834a52.473,52.473,0,0,1-7.955,0,4.44,4.44,0,0,1-2.4-1.406,5.107,5.107,0,0,1-1.6-2.173c-.479-1.342-2.428-11.693-2.428-11.693S35.374,473.789,34,468.006Z" transform="translate(-33.37 -450.45)" fill="#fff"/>
    <path id="Caminho_199" data-name="Caminho 199" d="M1684.041,1408.164s2.62-.543,2.907,3c-.032,2.716-3.77,1.47-3.706-1.182C1683.178,1408.164,1684.041,1408.164,1684.041,1408.164Z" transform="translate(-1656.222 -1392.334)" fill="#fff"/>
    <path id="Caminho_200" data-name="Caminho 200" d="M2043.6,1404.207s-2.62-.544-2.907,3c.032,2.716,3.77,1.47,3.706-1.182C2044.46,1404.207,2043.6,1404.207,2043.6,1404.207Z" transform="translate(-2007.955 -1388.44)" fill="#fff"/>
    <path id="Caminho_201" data-name="Caminho 201" d="M1703.267,2323.218a4.058,4.058,0,1,0-7.338,3.431A23.774,23.774,0,0,0,1703.267,2323.218Z" transform="translate(-1668.218 -2290.241)" fill="#fff"/>
    <path id="Caminho_202" data-name="Caminho 202" d="M1819.53,2616.45a4.058,4.058,0,0,0,6.08-2.86A22.806,22.806,0,0,1,1819.53,2616.45Z" transform="translate(-1790.333 -2578.504)" fill="#fff"/>
    <path id="Caminho_203" data-name="Caminho 203" d="M1534.108,2353.813c-.239-.537-1.322-.632-2.85-.351-.016.033-.031.068-.045.1a.33.33,0,0,0,.044.236c1.225-.216,2.073-.142,2.258.274.373.839-2.094,2.752-5.512,4.273s-6.491,2.073-6.864,1.233c-.192-.432.368-1.146,1.42-1.946a.185.185,0,0,0-.182-.189.527.527,0,0,0-.133.009c-1.265.961-1.94,1.846-1.7,2.39.447,1,3.844.466,7.589-1.2S1534.555,2354.817,1534.108,2353.813Z" transform="translate(-1496.086 -2322.386)" fill="#fff"/>
  </g>
</svg>
