<svg xmlns="http://www.w3.org/2000/svg" width="39.57" height="29.248" viewBox="0 0 39.57 29.248">
  <path id="Discord_Logo" data-name="Discord Logo" d="M36.086,10.243C32.663,7.487,27.246,7.02,27.013,7a.853.853,0,0,0-.85.5,5.7,5.7,0,0,0-.262.716,21.125,21.125,0,0,1,7.564,2.715.861.861,0,0,1-.908,1.462,21.99,21.99,0,0,0-21.545,0,.861.861,0,0,1-.908-1.462,21.127,21.127,0,0,1,7.564-2.711,7.583,7.583,0,0,0-.258-.719.849.849,0,0,0-.854-.5c-.232.017-5.649.483-9.12,3.277C5.626,11.956,2,21.754,2,30.226a.861.861,0,0,0,.114.427c2.5,4.4,9.325,5.544,10.88,5.595h.027a.86.86,0,0,0,.7-.353L15.29,33.73a16.691,16.691,0,0,1-6.535-3.068.861.861,0,1,1,1.139-1.29c.05.047,4.042,3.434,11.892,3.434s11.855-3.4,11.9-3.434a.859.859,0,0,1,1.135,1.29,16.691,16.691,0,0,1-6.535,3.068l1.572,2.164a.86.86,0,0,0,.7.353h.026c1.557-.051,8.381-1.2,10.882-5.595a.87.87,0,0,0,.114-.427c0-8.471-3.626-18.269-5.484-19.983ZM16.194,26.785a3.246,3.246,0,0,1-3.011-3.441A3.246,3.246,0,0,1,16.194,19.9,3.246,3.246,0,0,1,19.2,23.344,3.246,3.246,0,0,1,16.194,26.785Zm11.183,0a3.246,3.246,0,0,1-3.011-3.441A3.246,3.246,0,0,1,27.376,19.9a3.246,3.246,0,0,1,3.011,3.441A3.246,3.246,0,0,1,27.376,26.785Z" transform="translate(-2 -7)" fill="#fff"/>
</svg>
