<svg xmlns="http://www.w3.org/2000/svg" width="88.508" height="28.874" viewBox="0 0 88.508 28.874">
  <g id="worldwide-asset-exchange-wax-logo-vector" transform="translate(-20.6 -223.9)">
    <path id="Caminho_449" data-name="Caminho 449" d="M536.947,261.8l-4.247,3.539L537.05,269l8.6-7.2Z" transform="translate(-436.584 -32.311)" fill="#fff"/>
    <path id="Caminho_450" data-name="Caminho 450" d="M220.955,223.9l17.135,14.437-5.427,4.557-11.252-13.4h-7.329L194.5,252.773h7.314l15.941-18.934,4.6,5.486h-6l-3.067,3.657h12.136l3.524,4.2h7.314l6.193-5.191,6.194,5.191h8.715L229.655,223.9Z" transform="translate(-148.256 0)" fill="#fff"/>
    <path id="Caminho_451" data-name="Caminho 451" d="M51.494,261.8,47.1,273.892,42.7,261.8H35.391l-4.409,12.122L26.558,261.8H20.6l6.444,17.681H34.9l4.129-11.355,4.129,11.355h7.845L57.451,261.8Z" transform="translate(0 -32.311)" fill="#fff"/>
  </g>
</svg>
